<?xml version="1.0" encoding="utf-8"?>
<!-- Generator: Adobe Illustrator 23.1.0, SVG Export Plug-In . SVG Version: 6.00 Build 0)  -->
<svg version="1.1"
	 id="svg2" inkscape:version="0.91 r13725" sodipodi:docname="chanel.svg" xmlns:cc="http://creativecommons.org/ns#" xmlns:dc="http://purl.org/dc/elements/1.1/" xmlns:inkscape="http://www.inkscape.org/namespaces/inkscape" xmlns:rdf="http://www.w3.org/1999/02/22-rdf-syntax-ns#" xmlns:sodipodi="http://sodipodi.sourceforge.net/DTD/sodipodi-0.dtd" xmlns:svg="http://www.w3.org/2000/svg"
	 xmlns="http://www.w3.org/2000/svg" xmlns:xlink="http://www.w3.org/1999/xlink" x="0px" y="0px" viewBox="0 0 3000 443.6"
	 style="enable-background:new 0 0 3000 443.6;" xml:space="preserve">
<sodipodi:namedview  bordercolor="#666666" borderopacity="1" fit-margin-bottom="20" fit-margin-left="20" fit-margin-right="20" fit-margin-top="20" gridtolerance="10" guidetolerance="10" id="namedview18" inkscape:current-layer="svg2" inkscape:cx="1500" inkscape:cy="250.04419" inkscape:pageopacity="0" inkscape:pageshadow="2" inkscape:window-height="721" inkscape:window-maximized="1" inkscape:window-width="1280" inkscape:window-x="-4" inkscape:window-y="-4" inkscape:zoom="0.37266667" objecttolerance="10" pagecolor="#ffffff" showgrid="false">
	</sodipodi:namedview>
<path id="path6" inkscape:connector-curvature="0" d="M248.2-11.2c-125,0-228.2,95.6-228.2,230c0,134.4,103.1,230,228.2,230
	c85.6,0,161.3-46.2,200-117.5l-77.5-44.4c-22.5,46.3-68.1,74.4-122.5,74.4c-78.1,0-137.5-58.1-137.5-142.5S170,76.3,248.2,76.3
	c54.4,0,100,28.1,122.5,74.4l77.5-44.4C409.5,35,333.8-11.2,248.2-11.2z M557.6,0v437.6h87.5V250h218.8v187.5h87.5V0h-87.5v162.5
	H645.1V0C645.1,0,557.6,0,557.6,0z M1232.8,0L1039,437.6h95.7l43.1-100h228.8l43.1,100h95.6L1351.5,0L1232.8,0L1232.8,0z M1632.8,0
	v437.6h81.3V93.1l234.4,344.4h78.1V0h-81.3v290.1L1748.5,0C1748.5,0,1632.8,0,1632.8,0z M2195.4,0v437.6l325.1,0v-81.3h-243.8v-100
	h200V175h-200V81.3H2508V0L2195.4,0L2195.4,0z M2661.2,0v437.6v0H2980v-87.5h-231.3V0L2661.2,0L2661.2,0z M1292.1,71.9l79.4,184.4
	h-158.8L1292.1,71.9z"/>
</svg>
